<svg xmlns="http://www.w3.org/2000/svg" viewBox="0 0 1831.2 802.7"><g fill="#fff"><path d="m914.8 64.1h58.2l34.6 115 38.3-115.5h47.4l38.3 115.5 34.6-115h57l-66.3 200.1h-48l-40-114.4-39.7 114.4h-48z"></path><path d="m1206.8 186.8v-.6c0-43.7 35.8-80.3 85.2-80.3 49.1 0 84.6 36.1 84.6 79.8v.6c0 43.7-35.8 80.3-85.2 80.3-49.1-.1-84.6-36.1-84.6-79.8zm117.2 0v-.6c0-18.7-13.6-34.6-32.6-34.6-19.6 0-32.1 15.6-32.1 34.1v.6c0 18.7 13.6 34.6 32.6 34.6 19.7-.1 32.1-15.7 32.1-34.1z"></path><path d="m1397.7 109.3h53.9v30.9c8.8-21 23-34.6 48.5-33.5v56.8h-4.5c-28.1 0-44 16.2-44 51.7v47.7h-53.9z"></path><path d="m1518 55.6h53.9v207.2h-53.9z"></path><path d="m1594.8 186.8v-.6c0-50 31.2-80.3 67.6-80.3 23.3 0 36.9 10.5 47.1 22.1v-72.4h53.9v207.2h-53.9v-20.4c-10.5 12.8-23.8 23.8-46.8 23.8-36.4 0-67.9-30.3-67.9-79.4zm115.5-.6v-.6c0-20.1-13.9-34.6-31.2-34.6s-31.5 14.2-31.5 34.6v.6c0 20.4 14.2 34.9 31.5 34.9s31.2-14.5 31.2-34.9z"></path><path d="m921.3 408.5v-.6c0-57.1 46-103.3 107.3-103.3s106.7 45.7 106.7 102.8v.6c0 57-46 103.3-107.3 103.3s-106.7-45.8-106.7-102.8zm157.8 0v-.6c0-28.7-20.7-53.6-51.1-53.6-30.1 0-50.2 24.4-50.2 53.1v.6c0 28.7 20.7 53.6 50.8 53.6 30.4 0 50.5-24.5 50.5-53.1z"></path><path d="m1152.1 431.2v-.6c0-43.4 33.8-80 82.3-80 31.5 0 52.5 13.6 65.6 34.4l-36.6 27.2c-7.4-10.2-15.6-16.2-28.7-16.2-17.3 0-30.1 15.3-30.1 34.1v.6c0 19.9 12.5 34.9 30.7 34.9 12.8 0 21-6 29.5-15.9l36 26.1c-14.2 21-34.6 35.2-68.4 35.2-46.2 0-80.3-36.4-80.3-79.8z"></path><path d="m1307.5 431.2v-.6c0-44.9 32.1-80.3 77.5-80.3 53.1 0 77.5 38.9 77.5 84 0 3.4 0 7.4-.3 11.1h-102.8c4.3 16.7 16.5 25.3 33.2 25.3 12.8 0 23-4.8 34.1-15.6l29.8 24.7c-14.8 18.7-36 31.2-66.7 31.2-48.2 0-82.3-32.1-82.3-79.8zm104.5-13.4c-2-17-11.9-27.8-26.7-27.8-14.2 0-23.8 11.1-26.7 27.8z"></path><path d="m1478.5 431.2v-.6c0-50 31.2-80.3 67.6-80.3 23.3 0 36.9 10.5 47.1 22.1v-18.7h53.9v153.6h-53.9v-20.4c-10.5 12.8-23.8 23.8-46.8 23.8-36.4 0-67.9-30.4-67.9-79.5zm115.5-.6v-.6c0-20.1-13.6-34.6-31.2-34.6-17.3 0-31.5 14.2-31.5 34.6v.6c0 20.4 14.2 34.9 31.5 34.9s31.2-14.4 31.2-34.9z"></path><path d="m1677.3 353.7h53.9v21.6c9.9-12.8 24.1-25 46-25 32.6 0 52.2 21.6 52.2 56.5v100.5h-53.9v-83.2c0-16.8-8.8-25.8-21.6-25.8-13.1 0-22.7 9.1-22.7 25.8v83.2h-53.9z"></path><path d="m928.1 553h76.6c71 0 112.1 40.9 112.1 98.2v.6c0 57.3-41.7 99.9-113.2 99.9h-75.5zm77.5 149.9c32.9 0 54.8-18.2 54.8-50.2v-.6c0-31.8-21.8-50.2-54.8-50.2h-22.4v101z"></path><path d="m1129.6 675.6v-.5c0-50 31.2-80.3 67.6-80.3 23.3 0 36.9 10.5 47.1 22.1v-18.8h53.9v153.6h-53.9v-20.4c-10.5 12.8-23.8 23.8-46.8 23.8-36.4 0-67.9-30.4-67.9-79.5zm115.5-.6v-.6c0-20.2-13.6-34.6-31.2-34.6-17.3 0-31.5 14.2-31.5 34.6v.6c0 20.4 14.2 34.9 31.5 34.9s31.2-14.4 31.2-34.9z"></path><path d="m1320.2 784.6 16.8-37.8c8.5 5.1 17.6 8.2 23.6 8.2 5.4 0 9.1-1.4 12.5-6.2l-60.2-150.7h56.5l30.7 92.5 29-92.5h55.3l-56.3 149.9c-13.3 35.8-27.8 50-58.5 50-19-.1-35.2-5.5-49.4-13.4z"></path><path d="m750.1 319.8c-10.5-56.4-33.4-109.7-67-156.2-28.2-39-63.4-72.4-103.7-98.7-.4-.2-.9-.3-1.3-.4-3-.7-6.8 0-8.8 2.2-2.5 2.7-1.6 6.7-1.1 9.1.4 1.5.9 2.9 1.5 4.3 2 5 3 7.6 4.1 10.1 2.1 4.6 3.9 7.9 4.3 8.6 31.4 58.1 26.8 101.2 26.8 101.2-.5 6.5-2.6 28.3-17.5 48.2-21.2 28.3-55.2 34.9-69.4 37.3-72.3 11.9-100.9-34.9-199.2-55.7-35-7.4-88-18.6-147.6-.2-96.4 29.8-141.2 115.3-145.1 123.1-62.5 124.1 12.6 250.7 30.4 275.5 26.1 36.6 61.8 64.6 71.8 72.3 65.5 50.8 145.5 79.3 228.4 81.3 31.8.8 110.1-1.1 193.9-45.7 19.4-10.3 37.8-22.2 55.1-35.7 89-69.6 122.1-160.8 132.5-194.5 24.4-79.2 18.3-147.8 11.9-186.1z"></path><path d="m405.6 14.8c-28.3-10.1-54.9-10.7-76.6-9.7-15.1.8-30 2.8-44.8 6-15.3 3.4-34.5 9.4-36.6 10-13.7 4.4-27.2 9.5-40.3 15.5-8.7 4-44.5 20.6-85.1 53.6-32.3 26.3-50.2 48.7-81.7 88.3-3.5 4.4-8 12.1-17.1 27.4s-11.9 23.8-8.6 28c1.3 1.5 3.1 2.4 5 2.7 4.1.6 7.5-2.4 14.7-9.1 6-5.6 9-8.4 11.2-10.6 3.9-4 9.6-9.7 16.9-16.4 20-19.1 54.5-46.6 103.8-61.8 39.9-12.4 74-12 89.2-11.7 25.4.5 45.1 4.1 63.2 7.5 48.2 8.9 80.2 21.6 114.2 12.2 6.5-1.7 12.5-4.8 17.7-9 19.2-15.8 19.2-43.2 19.2-46.2-.3-35.6-34.9-66.3-64.3-76.7z"></path></g></svg>